<svg xmlns="http://www.w3.org/2000/svg" width="172" height="40" viewBox="0 0 172 40" role="img" aria-label="RAG inside">
  <title>RAG inside</title>
  <defs>
    <linearGradient id="ragGrad" x1="0" y1="0" x2="1" y2="1">
      <stop offset="0" stop-color="#4F46E5"/>
      <stop offset="1" stop-color="#7C3AED"/>
    </linearGradient>
  </defs>

  <!-- pill -->
  <rect x="0.5" y="0.5" width="171" height="39" rx="19.5" fill="url(#ragGrad)"/>

  <!-- minimalist brain icon -->
  <g transform="translate(12,10)" fill="none" stroke="#ffffff" stroke-width="1.5"
     stroke-linecap="round" stroke-linejoin="round">
    <path d="M10 4 V16"/>
    <path d="M10 4 C8 3 5 4 5 6 C3 6 3 9 4.5 9.5 C3 10.5 4 13 6 13 C6 15 9 16 10 15.5"/>
    <path d="M10 4 C12 3 15 4 15 6 C17 6 17 9 15.5 9.5 C17 10.5 16 13 14 13 C14 15 11 16 10 15.5"/>
    <path d="M7 7 c1 0.5 1 1.5 0 2"/>
    <path d="M13 7 c-1 0.5 -1 1.5 0 2"/>
  </g>

  <!-- wordmark -->
  <text x="42" y="26" font-family="-apple-system,Segoe UI,Helvetica,Arial,sans-serif"
        font-size="17" fill="#ffffff">
    <tspan font-weight="700" letter-spacing="0.5">RAG</tspan><tspan font-weight="400"> inside</tspan>
  </text>
</svg>
